Coordinates
version=1
nRows=7
nColumns=40
inDegrees=yes

Units are S.I. units (second, meters, Newtons, ...)
If the header above contains a line with 'inDegrees', this indicates whether rotational values are in degrees (yes) or radians (no).

endheader
time	pelvis_tilt	pelvis_list	pelvis_rotation	pelvis_tx	pelvis_ty	pelvis_tz	hip_flexion_r	hip_adduction_r	hip_rotation_r	knee_angle_r	knee_angle_r_beta	ankle_angle_r	subtalar_angle_r	mtp_angle_r	hip_flexion_l	hip_adduction_l	hip_rotation_l	knee_angle_l	knee_angle_l_beta	ankle_angle_l	subtalar_angle_l	mtp_angle_l	lumbar_extension	lumbar_bending	lumbar_rotation	arm_flex_r	arm_add_r	arm_rot_r	elbow_flex_r	pro_sup_r	wrist_flex_r	wrist_dev_r	arm_flex_l	arm_add_l	arm_rot_l	elbow_flex_l	pro_sup_l	wrist_flex_l	wrist_dev_l
      1.20000000	     -2.43536794	     -1.30577884	     -0.49179953	     -0.29824189	      1.00925108	     -0.72948651	     12.31436060	      6.75928644	     -1.16371881	     17.10072348	      0.29846393	      1.16954815	      0.00000000	      0.00000000	     12.65204445	     -0.24639585	      3.62673583	     85.39300047	      1.49038902	     -5.87473299	      0.00000000	      0.00000000	    -19.63173787	      2.28275980	      5.02761870	     83.22220603	    -18.74254822	     17.69883480	     51.67544934	     82.92114001	      0.00000000	      0.00000000	     88.31526643	     -7.34697567	     26.96969278	     42.85239142	     87.01736348	      0.00000000	      0.00000000
      1.20500000	     -2.50855679	     -1.31128012	     -0.56976539	     -0.29869504	      1.00896268	     -0.72939562	     12.40664755	      6.78899230	     -0.90452436	     17.05633849	      0.29768926	      1.16073735	      0.00000000	      0.00000000	     12.66835429	     -0.26232071	      3.60995106	     85.38664983	      1.49027818	     -5.88082597	      0.00000000	      0.00000000	    -19.68345717	      2.28501071	      5.10587381	     83.34956156	    -18.75611133	     17.72092264	     51.66976449	     84.32597067	      0.00000000	      0.00000000	     88.37426005	     -7.34855068	     26.95443870	     42.86814395	     86.78431169	      0.00000000	      0.00000000
      1.21000000	     -2.58823398	     -1.23385857	     -0.66886313	     -0.29909656	      1.00864050	     -0.72933132	     12.72470548	      6.68629250	     -1.04372684	     17.49279205	      0.30530682	      1.31048259	      0.00000000	      0.00000000	     12.67215885	     -0.18501568	      3.53591184	     85.33210951	      1.48932627	     -6.01973027	      0.00000000	      0.00000000	    -19.72313167	      2.19081966	      5.16815539	     83.45774117	    -18.77972061	     17.86536101	     51.71460681	     83.53027368	      0.00000000	      0.00000000	     88.42480437	     -7.36397399	     26.90999502	     42.92035442	     86.90916034	      0.00000000	      0.00000000
      1.21500000	     -2.67294336	     -1.24184932	     -0.74811374	     -0.29958203	      1.00835372	     -0.72923963	     12.96740355	      6.70284320	     -1.00591599	     17.74372751	      0.30968647	      1.34447348	      0.00000000	      0.00000000	     12.70580708	     -0.19458846	      3.52905768	     85.33029057	      1.48929452	     -6.00143701	      0.00000000	      0.00000000	    -19.74622607	      2.19588562	      5.24158027	     83.54819009	    -18.75912553	     17.90529063	     51.68321943	     83.28566952	      0.00000000	      0.00000000	     88.45873236	     -7.26501026	     26.58989085	     42.84321097	     86.99363043	      0.00000000	      0.00000000
      1.22000000	     -2.75828966	     -1.21640978	     -0.82151485	     -0.30002914	      1.00804484	     -0.72923333	     13.36321468	      6.65971497	     -1.18368488	     18.31326778	      0.31962682	      1.48679741	      0.00000000	      0.00000000	     12.73702430	     -0.16348626	      3.51025874	     85.33243849	      1.48933201	     -5.84467873	      0.00000000	      0.00000000	    -19.78721836	      2.16929343	      5.31836800	     83.68008053	    -18.80909971	     18.07061090	     51.71087493	     84.07046926	      0.00000000	      0.00000000	     88.50871439	     -7.28330996	     26.64357214	     42.86307992	     86.85838042	      0.00000000	      0.00000000
      1.22500000	     -2.83383914	     -1.21103767	     -0.89512038	     -0.30046841	      1.00775717	     -0.72915360	     13.53640018	      6.67284991	     -1.08340618	     18.43218395	      0.32170230	      1.49754117	      0.00000000	      0.00000000	     12.75071111	     -0.16864445	      3.48617185	     85.30546202	      1.48886118	     -5.99775900	      0.00000000	      0.00000000	    -19.83595978	      2.15000701	      5.36851098	     83.79093219	    -18.77917352	     18.07688270	     51.67035568	     83.83621003	      0.00000000	      0.00000000	     88.59254337	     -7.27331183	     26.58231966	     42.83194726	     86.89581148	      0.00000000	      0.00000000
      1.23000000	     -2.90933386	     -1.22633942	     -0.95639024	     -0.30092056	      1.00747647	     -0.72907945	     13.73690828	      6.69989361	     -0.98054072	     18.63456759	      0.32523456	      1.55464019	      0.00000000	      0.00000000	     12.77716392	     -0.20258162	      3.47307353	     85.28823084	      1.48856044	     -6.01243149	      0.00000000	      0.00000000	    -19.89568462	      2.18316538	      5.42365229	     83.94373680	    -18.84028048	     18.34236865	     51.72968808	     83.76124206	      0.00000000	      0.00000000	     88.60522223	     -7.28046507	     26.40907361	     42.94528792	     86.87469860	      0.00000000	      0.00000000
